<svg xmlns="http://www.w3.org/2000/svg" width="39.218" height="39.218" viewBox="0 0 39.218 39.218">
  <g id="architecture" opacity="0.2">
    <path id="Path_4" data-name="Path 4" d="M186.139,2.511h-5.17V0h-2.3V2.511H173.5V5.294h12.639Z" transform="translate(-160.21)"/>
    <path id="Path_5" data-name="Path 5" d="M39.218,127.52H37.226V101.081H30.213v4.642h3.381v2.3H30.213v2.3h3.381v2.3H30.213v2.3h3.381v2.3H30.213v2.3h3.381v2.3H30.213v5.71H27.992v-29.4H11.226v29.4H9v-5.71H5.676v-2.3H9v-2.3H5.676v-2.3H9v-2.3H5.676v-2.3H9v-2.3H5.676v-2.3H9v-4.642H1.992V127.52H0v2.3H39.218ZM23.4,105.75v2.3H20.949v-2.3Zm-2.451-2.3v-2.3H23.4v2.3Zm2.451,6.894v2.3H20.949v-2.3Zm0,4.6v2.3H20.949v-2.3Zm0,4.6v2.3H20.949v-2.3Zm-7.583-2.3v-2.3h2.451v2.3Zm2.451,2.3v2.3H15.817v-2.3Zm-2.451-6.894v-2.3h2.451v2.3Zm0-4.6v-2.3h2.451v2.3Zm0-4.6v-2.3h2.451v2.3Zm2.643,20.6h2.3v3.464h-2.3Z" transform="translate(0 -90.601)"/>
  </g>
</svg>
