<svg id="Coin" xmlns="http://www.w3.org/2000/svg" width="16" height="16" viewBox="0 0 16 16">
  <path id="Path_10459" data-name="Path 10459" d="M13,5a8,8,0,1,0,8,8A8.009,8.009,0,0,0,13,5Zm0,14.921A6.921,6.921,0,1,1,19.921,13,6.929,6.929,0,0,1,13,19.921Z" transform="translate(-5 -5)" fill="#636363"/>
  <path id="Path_10460" data-name="Path 10460" d="M37.077,24.941c-1.074-.211-1.58-.369-1.58-.907a.846.846,0,0,1,.514-.826,2.29,2.29,0,0,1,2.136.244.459.459,0,1,0,.568-.721,2.961,2.961,0,0,0-1.342-.554v-.816a.46.46,0,0,0-.92,0v.789a2.622,2.622,0,0,0-.845.231,1.755,1.755,0,0,0-1.033,1.652c0,1.351,1.342,1.615,2.322,1.808,1.057.207,1.433.35,1.433.735a.843.843,0,0,1-.487.812,2.271,2.271,0,0,1-2.111-.191.46.46,0,0,0-.532.75,3.017,3.017,0,0,0,1.252.484v1.1a.46.46,0,0,0,.92,0V28.445a2.584,2.584,0,0,0,.893-.239,1.755,1.755,0,0,0,.984-1.628C39.251,25.368,38.046,25.131,37.077,24.941Z" transform="translate(-28.914 -17.282)" fill="#636363"/>
</svg>
