<svg xmlns="http://www.w3.org/2000/svg" width="16" height="16" viewBox="0 0 16 16">
  <g id="Group_11462" data-name="Group 11462" transform="translate(0 0)">
    <path id="Path_10471" data-name="Path 10471" d="M5.96,4.574A6.872,6.872,0,0,0,4.574,5.96L3.523,5.353a8.084,8.084,0,0,1,1.83-1.83Zm-2.7,4.672H2.049a7.989,7.989,0,0,1,.668-2.5l1.051.607A6.789,6.789,0,0,0,3.262,9.245Zm10.877,6.28a6.872,6.872,0,0,0,1.386-1.386l1.051.607a8.084,8.084,0,0,1-1.83,1.83Zm2.7-4.672h1.213a7.989,7.989,0,0,1-.668,2.5l-1.051-.607A6.789,6.789,0,0,0,16.836,10.853ZM5.96,15.525l-.607,1.051a8.084,8.084,0,0,1-1.83-1.83l1.051-.607A6.872,6.872,0,0,0,5.96,15.525Zm-2.7-4.672a6.789,6.789,0,0,0,.506,1.894l-1.051.607a7.989,7.989,0,0,1-.668-2.5ZM16.836,9.245a6.836,6.836,0,0,0-5.983-5.983V2.049a8.041,8.041,0,0,1,7.2,7.2ZM9.245,3.262a6.789,6.789,0,0,0-1.894.506L6.745,2.718a7.989,7.989,0,0,1,2.5-.668Zm1.608,13.574a6.789,6.789,0,0,0,1.894-.506l.607,1.051a7.989,7.989,0,0,1-2.5.668Zm-1.608,0v1.213a7.989,7.989,0,0,1-2.5-.668l.607-1.051A6.789,6.789,0,0,0,9.245,16.836Z" transform="translate(-2.049 -2.049)" fill="#636363"/>
    <path id="Path_10472" data-name="Path 10472" d="M12.325,9.764H14.29a.538.538,0,1,1,0,1.075H11.25V6.545a.538.538,0,1,1,1.075,0Z" transform="translate(-3.577 -2.637)" fill="#636363"/>
  </g>
</svg>
